<?xml version="1.0" encoding="UTF-8"?>
<svg width="530px" height="252px" viewBox="0 0 530 252" version="1.1" xmlns="http://www.w3.org/2000/svg" xmlns:xlink="http://www.w3.org/1999/xlink">
    <!-- Generator: Sketch 61.2 (89653) - https://sketch.com -->
    <title>Logo horizontal splash white@2x</title>
    <desc>Created with Sketch.</desc>
    <defs>
        <path d="M60.1091243,124.202025 C47.7680054,126.492043 35.9062463,118.350025 33.6149063,106.01603 C31.3243652,93.681236 39.4710856,81.8271223 51.8122045,79.5371049 C64.1533234,77.2470876 76.0150825,85.3899039 78.3064225,97.7238992 C80.5977625,110.057096 72.4502432,121.912008 60.1091243,124.202025 M104.397978,74.4348696 C89.2366256,47.6996353 55.2611985,38.3088074 28.510523,53.46061 C1.75904851,68.6124126 -7.63640423,102.568228 7.52414944,129.304261 C22.6847031,156.039495 56.6609292,165.430323 83.4108058,150.27852 C110.16228,135.127516 119.557733,101.170104 104.397978,74.4348696" id="path-1"></path>
    </defs>
    <g id="Logo-horizontal-splash-white" stroke="none" stroke-width="1" fill="none" fill-rule="evenodd">
        <g id="Group-14" transform="translate(41.000000, 40.000000)">
            <g id="Group-6-Copy-4">
                <g id="Group-6-Copy-2">
                    <g id="Group-6-Copy">
                        <g id="Group" transform="translate(0.486581, 0.739130)">
                            <polygon id="Fill-1" fill="#FFFFFF" points="49.3188854 -5.51613068e-14 0.435032895 37.3979044 0.435032895 65.4996519 49.3188854 29.870695"></polygon>
                            <mask id="mask-2" fill="white">
                                <use xlink:href="#path-1"></use>
                            </mask>
                            <use id="Mask" fill="#FFFFFF" xlink:href="#path-1"></use>
                        </g>
                        <g id="Group-2" transform="translate(135.973684, 79.043478)" fill="#FFFFFF">
                            <path d="M19.6253219,49.3809524 C8.16405135,49.3809524 0,41.851641 0,30.6991686 L0,2.9047619 L12.6577479,2.9047619 L12.6577479,30.4660426 C12.6577479,34.896725 15.489348,37.759638 19.6253209,37.759638 C23.760652,37.759638 26.5922521,34.896725 26.5922521,30.4660426 L26.5922521,2.9047619 L39.25,2.9047619 L39.25,30.6991686 C39.25,41.851641 31.0859486,49.3809524 19.6253209,49.3809524 L19.6253219,49.3809524 Z M47.9722222,47.9285714 L47.9722222,2.9047619 L61.0555556,2.9047619 L61.0555556,47.9285714 L47.9722222,47.9285714 Z M110.810779,24.1540701 L110.812101,24.1547129 C115.17271,26.1659911 117.908999,30.194336 117.908999,35.10772 C117.908999,42.4028634 111.438162,47.9285714 102.896102,47.9285714 L81.5664063,47.9285714 L81.5664063,2.9047619 L102.469032,2.9047619 C110.674592,2.9047619 116.662165,7.77569462 116.662165,14.4276408 C116.662165,18.4508399 114.346336,22.0701113 110.810779,24.1540701 Z M104.825666,16.702381 L104.825039,16.702381 C104.825039,14.5377518 103.268655,13.0714286 100.745786,13.0714286 L94.6497396,13.0714286 L94.6497396,20.3333333 L100.746412,20.3333333 C103.269281,20.3333333 104.825666,18.8670101 104.825666,16.702381 Z M101.658829,37.7619048 C104.452831,37.7619048 106.279369,35.9697587 106.279369,33.3849089 C106.279369,30.839763 104.452831,29.047619 101.658829,29.047619 L94.6497396,29.047619 L94.6497396,37.7619048 L101.658829,37.7619048 L101.658829,37.7619048 Z M153.833076,12.6883825 L162.814815,12.6890403 L162.814815,48.1801689 L153.498763,48.1801689 L152.46667,45.6701573 C149.601687,48.0244026 145.973487,49.3809524 141.909903,49.3809524 C131.211895,49.3809524 123.564815,41.4638013 123.564815,30.4339467 C123.564815,19.4422124 131.211895,11.6190476 141.909903,11.6190476 C146.030502,11.6190476 149.711181,13.0150324 152.600136,15.4330294 L153.833076,12.6883825 Z M143.189814,39.2142857 C147.798,39.2142857 151.185185,35.7941114 151.185185,31.212221 C151.185185,26.6582695 147.798,23.2380952 143.189814,23.2380952 C138.553849,23.2380952 135.194444,26.6582695 135.194444,31.212221 C135.194444,35.7941114 138.58163,39.2142857 143.189815,39.2142857 L143.189814,39.2142857 Z M204.972222,47.9285714 L190.819023,47.9285714 L182.089056,33.0374577 L182.089056,47.9285714 L170.083333,47.9285714 L170.083333,0 L182.089056,0 L182.089056,26.510695 L190.392368,12.7157434 L203.872988,12.7157434 L193.010391,29.4985682 L204.972222,47.9285714 Z M244.222222,30.163332 L244.22158,30.1646438 C244.22158,31.2323991 244.130286,32.3001543 243.974701,33.3961288 L218.195762,33.3961288 C218.978188,37.4610792 221.507413,39.5631191 225.283249,39.5631191 C228.076712,39.5631191 230.410492,38.3142331 231.560023,36.2397565 L243.459726,36.2397565 C241.016651,44.3276561 233.993454,49.3809524 225.283249,49.3809524 C214.450784,49.3809524 206.425926,41.29896 206.425926,30.4724367 C206.425926,19.6078494 214.386493,11.6190476 225.283249,11.6190476 C236.473817,11.6190476 244.222222,19.7686359 244.222222,30.163332 Z M225.177572,21.7857143 C221.567619,21.7857143 219.057766,23.8448124 218.055556,27.5952381 L232.592593,27.5952381 C231.50581,23.8217392 228.915381,21.7857143 225.177571,21.7857143 L225.177572,21.7857143 Z M270.037328,13.0714296 L274.963873,24.0064863 L268.519959,24.0064863 C264.164305,24.0064863 262.340023,25.8618679 262.340023,30.2870298 L262.340023,47.9285714 L250.037037,47.9285714 L250.037037,13.2365384 L258.279376,13.2365384 L260.198907,17.0867112 C262.717712,14.2567405 265.786183,13.0714296 270.037328,13.0714296 Z M300.951673,13.0714286 L314,13.0714286 L299.220558,46.4475521 C294.467342,57.1382358 290.098091,61 280.993255,61 L276.834272,50.6618557 L280.174388,50.6618557 C284.821165,50.6618557 286.222512,49.4632211 287.868082,45.1163106 L273.296296,13.0714286 L286.494815,13.0714286 L293.978242,32.3136238 L300.951673,13.0714286 Z" id="UIBakery"></path>
                        </g>
                    </g>
                </g>
            </g>
        </g>
    </g>
</svg>